<svg xmlns="http://www.w3.org/2000/svg" viewBox="0 0 100 100" preserveAspectRatio="xMidYMid" width="249" height="249" style="shape-rendering: auto; display: block; background: rgb(255, 255, 255);" xmlns:xlink="http://www.w3.org/1999/xlink"><g><g transform="rotate(0 50 50)">
  <rect fill="#000000" height="11" width="8" ry="4.84" rx="4" y="33.5" x="46">
    <animate repeatCount="indefinite" begin="-1.409313725490196s" dur="1.4705882352941175s" keyTimes="0;1" values="1;0" attributeName="opacity"></animate>
  </rect>
</g><g transform="rotate(15 50 50)">
  <rect fill="#000000" height="11" width="8" ry="4.84" rx="4" y="33.5" x="46">
    <animate repeatCount="indefinite" begin="-1.3480392156862744s" dur="1.4705882352941175s" keyTimes="0;1" values="1;0" attributeName="opacity"></animate>
  </rect>
</g><g transform="rotate(30 50 50)">
  <rect fill="#000000" height="11" width="8" ry="4.84" rx="4" y="33.5" x="46">
    <animate repeatCount="indefinite" begin="-1.2867647058823528s" dur="1.4705882352941175s" keyTimes="0;1" values="1;0" attributeName="opacity"></animate>
  </rect>
</g><g transform="rotate(45 50 50)">
  <rect fill="#000000" height="11" width="8" ry="4.84" rx="4" y="33.5" x="46">
    <animate repeatCount="indefinite" begin="-1.2254901960784315s" dur="1.4705882352941175s" keyTimes="0;1" values="1;0" attributeName="opacity"></animate>
  </rect>
</g><g transform="rotate(60 50 50)">
  <rect fill="#000000" height="11" width="8" ry="4.84" rx="4" y="33.5" x="46">
    <animate repeatCount="indefinite" begin="-1.1642156862745099s" dur="1.4705882352941175s" keyTimes="0;1" values="1;0" attributeName="opacity"></animate>
  </rect>
</g><g transform="rotate(75 50 50)">
  <rect fill="#000000" height="11" width="8" ry="4.84" rx="4" y="33.5" x="46">
    <animate repeatCount="indefinite" begin="-1.1029411764705883s" dur="1.4705882352941175s" keyTimes="0;1" values="1;0" attributeName="opacity"></animate>
  </rect>
</g><g transform="rotate(90 50 50)">
  <rect fill="#000000" height="11" width="8" ry="4.84" rx="4" y="33.5" x="46">
    <animate repeatCount="indefinite" begin="-1.0416666666666667s" dur="1.4705882352941175s" keyTimes="0;1" values="1;0" attributeName="opacity"></animate>
  </rect>
</g><g transform="rotate(105 50 50)">
  <rect fill="#000000" height="11" width="8" ry="4.84" rx="4" y="33.5" x="46">
    <animate repeatCount="indefinite" begin="-0.9803921568627451s" dur="1.4705882352941175s" keyTimes="0;1" values="1;0" attributeName="opacity"></animate>
  </rect>
</g><g transform="rotate(120 50 50)">
  <rect fill="#000000" height="11" width="8" ry="4.84" rx="4" y="33.5" x="46">
    <animate repeatCount="indefinite" begin="-0.9191176470588235s" dur="1.4705882352941175s" keyTimes="0;1" values="1;0" attributeName="opacity"></animate>
  </rect>
</g><g transform="rotate(135 50 50)">
  <rect fill="#000000" height="11" width="8" ry="4.84" rx="4" y="33.5" x="46">
    <animate repeatCount="indefinite" begin="-0.8578431372549019s" dur="1.4705882352941175s" keyTimes="0;1" values="1;0" attributeName="opacity"></animate>
  </rect>
</g><g transform="rotate(150 50 50)">
  <rect fill="#000000" height="11" width="8" ry="4.84" rx="4" y="33.5" x="46">
    <animate repeatCount="indefinite" begin="-0.7965686274509803s" dur="1.4705882352941175s" keyTimes="0;1" values="1;0" attributeName="opacity"></animate>
  </rect>
</g><g transform="rotate(165 50 50)">
  <rect fill="#000000" height="11" width="8" ry="4.84" rx="4" y="33.5" x="46">
    <animate repeatCount="indefinite" begin="-0.7352941176470588s" dur="1.4705882352941175s" keyTimes="0;1" values="1;0" attributeName="opacity"></animate>
  </rect>
</g><g transform="rotate(180 50 50)">
  <rect fill="#000000" height="11" width="8" ry="4.84" rx="4" y="33.5" x="46">
    <animate repeatCount="indefinite" begin="-0.6740196078431372s" dur="1.4705882352941175s" keyTimes="0;1" values="1;0" attributeName="opacity"></animate>
  </rect>
</g><g transform="rotate(195 50 50)">
  <rect fill="#000000" height="11" width="8" ry="4.84" rx="4" y="33.5" x="46">
    <animate repeatCount="indefinite" begin="-0.6127450980392157s" dur="1.4705882352941175s" keyTimes="0;1" values="1;0" attributeName="opacity"></animate>
  </rect>
</g><g transform="rotate(210 50 50)">
  <rect fill="#000000" height="11" width="8" ry="4.84" rx="4" y="33.5" x="46">
    <animate repeatCount="indefinite" begin="-0.5514705882352942s" dur="1.4705882352941175s" keyTimes="0;1" values="1;0" attributeName="opacity"></animate>
  </rect>
</g><g transform="rotate(225 50 50)">
  <rect fill="#000000" height="11" width="8" ry="4.84" rx="4" y="33.5" x="46">
    <animate repeatCount="indefinite" begin="-0.49019607843137253s" dur="1.4705882352941175s" keyTimes="0;1" values="1;0" attributeName="opacity"></animate>
  </rect>
</g><g transform="rotate(240 50 50)">
  <rect fill="#000000" height="11" width="8" ry="4.84" rx="4" y="33.5" x="46">
    <animate repeatCount="indefinite" begin="-0.42892156862745096s" dur="1.4705882352941175s" keyTimes="0;1" values="1;0" attributeName="opacity"></animate>
  </rect>
</g><g transform="rotate(255 50 50)">
  <rect fill="#000000" height="11" width="8" ry="4.84" rx="4" y="33.5" x="46">
    <animate repeatCount="indefinite" begin="-0.3676470588235294s" dur="1.4705882352941175s" keyTimes="0;1" values="1;0" attributeName="opacity"></animate>
  </rect>
</g><g transform="rotate(270 50 50)">
  <rect fill="#000000" height="11" width="8" ry="4.84" rx="4" y="33.5" x="46">
    <animate repeatCount="indefinite" begin="-0.30637254901960786s" dur="1.4705882352941175s" keyTimes="0;1" values="1;0" attributeName="opacity"></animate>
  </rect>
</g><g transform="rotate(285 50 50)">
  <rect fill="#000000" height="11" width="8" ry="4.84" rx="4" y="33.5" x="46">
    <animate repeatCount="indefinite" begin="-0.24509803921568626s" dur="1.4705882352941175s" keyTimes="0;1" values="1;0" attributeName="opacity"></animate>
  </rect>
</g><g transform="rotate(300 50 50)">
  <rect fill="#000000" height="11" width="8" ry="4.84" rx="4" y="33.5" x="46">
    <animate repeatCount="indefinite" begin="-0.1838235294117647s" dur="1.4705882352941175s" keyTimes="0;1" values="1;0" attributeName="opacity"></animate>
  </rect>
</g><g transform="rotate(315 50 50)">
  <rect fill="#000000" height="11" width="8" ry="4.84" rx="4" y="33.5" x="46">
    <animate repeatCount="indefinite" begin="-0.12254901960784313s" dur="1.4705882352941175s" keyTimes="0;1" values="1;0" attributeName="opacity"></animate>
  </rect>
</g><g transform="rotate(330 50 50)">
  <rect fill="#000000" height="11" width="8" ry="4.84" rx="4" y="33.5" x="46">
    <animate repeatCount="indefinite" begin="-0.061274509803921566s" dur="1.4705882352941175s" keyTimes="0;1" values="1;0" attributeName="opacity"></animate>
  </rect>
</g><g transform="rotate(345 50 50)">
  <rect fill="#000000" height="11" width="8" ry="4.84" rx="4" y="33.5" x="46">
    <animate repeatCount="indefinite" begin="0s" dur="1.4705882352941175s" keyTimes="0;1" values="1;0" attributeName="opacity"></animate>
  </rect>
</g><g></g></g><!-- [ldio] generated by https://loading.io --></svg>